<?xml version="1.0" encoding="UTF-8" standalone="no"?>
<!-- Created with Inkscape (http://www.inkscape.org/) -->

<svg
   xmlns:dc="http://purl.org/dc/elements/1.1/"
   xmlns:cc="http://creativecommons.org/ns#"
   xmlns:rdf="http://www.w3.org/1999/02/22-rdf-syntax-ns#"
   xmlns:svg="http://www.w3.org/2000/svg"
   xmlns="http://www.w3.org/2000/svg"
   xmlns:sodipodi="http://sodipodi.sourceforge.net/DTD/sodipodi-0.dtd"
   xmlns:inkscape="http://www.inkscape.org/namespaces/inkscape"
   width="28.287834mm"
   height="28.222221mm"
   viewBox="0 0 100.23248 99.999997"
   id="svg2"
   version="1.1"
   inkscape:version="0.91 r13725"
   sodipodi:docname="logo.svg">
  <sodipodi:namedview
     id="base"
     pagecolor="#009688"
     bordercolor="#666666"
     borderopacity="1.0"
     inkscape:pageopacity="0"
     inkscape:pageshadow="2"
     inkscape:zoom="3.959798"
     inkscape:cx="15.421935"
     inkscape:cy="66.615761"
     inkscape:document-units="px"
     inkscape:current-layer="layer1"
     showgrid="false"
     inkscape:window-width="1920"
     inkscape:window-height="1056"
     inkscape:window-x="0"
     inkscape:window-y="24"
     inkscape:window-maximized="1"
     fit-margin-top="0"
     fit-margin-left="0"
     fit-margin-right="0"
     fit-margin-bottom="0" />
  <defs
     id="defs4">
    <clipPath
       clipPathUnits="userSpaceOnUse"
       id="clipPath6637">
      <rect
         y="954.3822"
         x="2"
         height="96.000061"
         width="96.000061"
         id="rect6639"
         style="fill:none;fill-opacity:1;stroke:#ffffff;stroke-width:4;stroke-miterlimit:4;stroke-dasharray:none;stroke-dashoffset:0;stroke-opacity:1" />
    </clipPath>
  </defs>
  <metadata
     id="metadata7">
    <rdf:RDF>
      <cc:Work
         rdf:about="">
        <dc:format>image/svg+xml</dc:format>
        <dc:type
           rdf:resource="http://purl.org/dc/dcmitype/StillImage" />
        <dc:title></dc:title>
      </cc:Work>
    </rdf:RDF>
  </metadata>
  <g
     id="layer1"
     inkscape:groupmode="layer"
     inkscape:label="Layer 1"
     transform="translate(0,-952.38229)">
    <path
       id="path4216"
       title="(1 - 2*pi*pi*x*x)exp(-pi*pi*x*x)"
       d=""
       style="fill:none;fill-opacity:1;stroke:#007c86;stroke-width:4;stroke-miterlimit:4;stroke-dasharray:none;stroke-dashoffset:0;stroke-opacity:0.46733668"
       inkscape:connector-curvature="0" />
    <path
       style="fill:none;fill-opacity:1;stroke:#007c86;stroke-width:4;stroke-miterlimit:4;stroke-dasharray:none;stroke-dashoffset:0;stroke-opacity:0.46733668"
       d=""
       title="(1 - 2*pi*pi*x*x)exp(-pi*pi*x*x)"
       id="path4236"
       inkscape:connector-curvature="0" />
    <rect
       y="954.38226"
       x="1.9999691"
       height="96.000061"
       width="96.000061"
       id="rect4165"
       style="fill:none;fill-opacity:1;stroke:#ffffff;stroke-width:4;stroke-miterlimit:4;stroke-dasharray:none;stroke-dashoffset:0;stroke-opacity:1" />
    <ellipse
       ry="45.90456"
       rx="62.552982"
       cy="957.28412"
       cx="49.562756"
       id="path4167"
       style="fill:none;fill-opacity:1;stroke:#ffffff;stroke-width:34.35972214;stroke-miterlimit:4;stroke-dasharray:none;stroke-dashoffset:0;stroke-opacity:0.54773865"
       clip-path="url(#clipPath6637)"
       transform="matrix(1,0,0,1.0995053,0,-95.491485)" />
    <path
       id="path6504"
       title="(1 - 2*pi*pi*x*x)*exp(-pi*pi*x*x)"
       d="m 47.974342,1052.2439 c -0.02773,-1.7494 -0.068,-3.4985 -0.195112,-5.2476 -0.126814,-1.7493 -0.33549,-3.4983 -0.803235,-5.2475 -0.46775,-1.7491 -1.207828,-3.4981 -2.465273,-5.2473 -1.257421,-1.7492 -3.077957,-3.4982 -5.368641,-5.2474 -2.29071,-1.7491 -5.086877,-3.4981 -7.298722,-5.2473 -2.211837,-1.749 -3.747736,-3.4983 -2.824375,-5.2473 0.923369,-1.7491 4.508647,-3.4983 10.995551,-5.2474 6.48691,-1.7491 15.890118,-3.4982 25.151439,-5.2474 9.261411,-1.749 18.059186,-3.4982 22.575088,-5.2473 4.515881,-1.7491 4.507703,-3.4983 0,-5.24734 -4.507696,-1.7491 -13.314441,-3.49823 -22.575088,-5.24734 -9.260649,-1.74914 -18.659226,-3.49824 -25.151439,-5.24739 -6.492199,-1.74908 -10.067311,-3.49821 -10.995551,-5.24733 -0.928202,-1.74908 0.613889,-3.4982 2.824375,-5.24733 2.210465,-1.74913 5.007213,-3.49823 7.298722,-5.24733 2.291535,-1.74915 4.110183,-3.49825 5.368641,-5.24735 1.258427,-1.74915 1.99694,-3.49823 2.465273,-5.2474 0.468268,-1.7491 0.676269,-3.49818 0.803235,-5.24733 0.126813,-1.7491 0.169049,-3.49821 0.195112,-5.24733"
       style="fill:none;fill-opacity:1;stroke:#ffffff;stroke-width:7.01331663;stroke-miterlimit:4;stroke-dasharray:none;stroke-dashoffset:0;stroke-opacity:1"
       inkscape:connector-curvature="0" />
  </g>
</svg>
